<svg xmlns="http://www.w3.org/2000/svg" xmlns:xlink="http://www.w3.org/1999/xlink" width="233" zoomAndPan="magnify" viewBox="0 0 174.75 82.499998" height="110" preserveAspectRatio="xMidYMid meet" version="1.0"><defs><g/><clipPath id="26397bbb79"><path d="M 0.402344 0 L 74.949219 0 L 74.949219 71.566406 L 0.402344 71.566406 Z M 0.402344 0 " clip-rule="nonzero"/></clipPath><clipPath id="3efaa4609f"><path d="M 52.460938 35.105469 L 162.984375 35.105469 L 162.984375 63.542969 L 52.460938 63.542969 Z M 52.460938 35.105469 " clip-rule="nonzero"/></clipPath><clipPath id="10e267b462"><path d="M 0.460938 0.105469 L 110.984375 0.105469 L 110.984375 28.542969 L 0.460938 28.542969 Z M 0.460938 0.105469 " clip-rule="nonzero"/></clipPath><clipPath id="25a1da8a8f"><rect x="0" width="111" y="0" height="29"/></clipPath></defs><g clip-path="url(#26397bbb79)"><path fill="#000000" d="M 37.59375 25.835938 C 39.746094 25.835938 41.695312 24.960938 43.109375 23.554688 C 44.523438 22.140625 45.398438 20.195312 45.398438 18.046875 C 45.398438 15.9375 44.550781 14.019531 43.179688 12.613281 L 43.109375 12.542969 C 41.699219 11.132812 39.746094 10.261719 37.59375 10.261719 C 35.476562 10.261719 33.550781 11.105469 32.148438 12.476562 L 32.074219 12.542969 C 30.664062 13.949219 29.789062 15.898438 29.789062 18.046875 C 29.789062 20.199219 30.664062 22.144531 32.074219 23.554688 L 32.082031 23.554688 C 33.496094 24.964844 35.441406 25.835938 37.59375 25.835938 Z M 33.765625 14.226562 L 33.820312 14.167969 C 34.792969 13.226562 36.125 12.644531 37.597656 12.644531 C 39.09375 12.644531 40.449219 13.25 41.425781 14.226562 L 41.488281 14.28125 C 42.433594 15.253906 43.015625 16.582031 43.015625 18.046875 C 43.015625 19.542969 42.410156 20.894531 41.433594 21.871094 C 40.453125 22.847656 39.097656 23.453125 37.597656 23.453125 C 36.101562 23.453125 34.746094 22.847656 33.765625 21.871094 C 32.785156 20.890625 32.183594 19.542969 32.183594 18.046875 C 32.179688 16.558594 32.785156 15.203125 33.765625 14.226562 Z M 74.546875 69.765625 L 59.539062 45.046875 C 59.347656 44.644531 58.9375 44.371094 58.464844 44.371094 L 45.035156 44.371094 C 50.277344 35.167969 56.265625 23.988281 56.265625 18.632812 C 56.265625 13.488281 54.175781 8.828125 50.796875 5.457031 C 47.417969 2.085938 42.75 0 37.597656 0 C 32.441406 0 27.773438 2.085938 24.394531 5.457031 C 21.015625 8.828125 18.925781 13.488281 18.925781 18.632812 C 18.925781 24.007812 24.910156 35.167969 30.15625 44.371094 L 16.730469 44.371094 L 16.730469 44.375 C 16.328125 44.375 15.9375 44.578125 15.714844 44.945312 L 0.707031 69.664062 C 0.558594 69.863281 0.46875 70.109375 0.46875 70.375 C 0.46875 71.035156 1.003906 71.566406 1.660156 71.566406 L 73.527344 71.566406 L 73.527344 71.5625 C 73.738281 71.5625 73.953125 71.507812 74.144531 71.390625 C 74.707031 71.050781 74.882812 70.324219 74.546875 69.765625 Z M 26.6875 64.347656 L 25.9375 69.1875 L 22.683594 69.1875 L 23.382812 64.703125 C 23.480469 64.054688 23.039062 63.449219 22.386719 63.347656 C 22.328125 63.339844 22.265625 63.332031 22.207031 63.332031 L 22.207031 63.328125 L 7.328125 63.328125 L 9.285156 60.105469 L 23.078125 60.105469 C 23.710938 60.105469 24.226562 59.613281 24.265625 58.992188 L 26.171875 46.75 L 29.425781 46.75 L 27.5625 58.730469 C 27.460938 59.378906 27.90625 59.984375 28.554688 60.085938 C 28.621094 60.09375 28.683594 60.101562 28.742188 60.101562 L 66.058594 60.359375 L 68.015625 63.582031 L 27.867188 63.332031 C 27.269531 63.332031 26.773438 63.773438 26.6875 64.347656 Z M 43.671875 46.753906 L 57.796875 46.753906 L 64.613281 57.980469 L 30.125 57.742188 L 31.769531 47.183594 L 32.828125 49.015625 C 34.335938 51.628906 35.652344 53.90625 36.550781 55.578125 C 36.574219 55.621094 36.597656 55.664062 36.628906 55.703125 C 36.636719 55.714844 36.644531 55.726562 36.652344 55.734375 C 36.679688 55.769531 36.710938 55.804688 36.738281 55.835938 C 36.746094 55.839844 36.75 55.847656 36.757812 55.855469 C 36.792969 55.890625 36.832031 55.925781 36.875 55.957031 C 36.882812 55.964844 36.894531 55.96875 36.902344 55.976562 C 36.945312 56.007812 36.992188 56.039062 37.039062 56.0625 C 37.074219 56.082031 37.109375 56.097656 37.148438 56.113281 C 37.167969 56.121094 37.191406 56.128906 37.210938 56.136719 C 37.226562 56.144531 37.238281 56.148438 37.253906 56.152344 C 37.28125 56.160156 37.308594 56.167969 37.335938 56.171875 C 37.347656 56.175781 37.355469 56.179688 37.367188 56.179688 C 37.394531 56.1875 37.417969 56.1875 37.445312 56.191406 C 37.457031 56.191406 37.46875 56.195312 37.484375 56.195312 C 37.503906 56.199219 37.527344 56.199219 37.546875 56.199219 C 37.566406 56.199219 37.582031 56.203125 37.601562 56.203125 C 37.617188 56.203125 37.636719 56.199219 37.652344 56.199219 C 37.675781 56.199219 37.695312 56.199219 37.71875 56.195312 C 37.730469 56.195312 37.742188 56.191406 37.757812 56.191406 C 37.78125 56.1875 37.804688 56.183594 37.832031 56.179688 C 37.84375 56.179688 37.855469 56.175781 37.867188 56.171875 C 37.890625 56.167969 37.917969 56.160156 37.945312 56.152344 C 37.960938 56.148438 37.976562 56.140625 37.988281 56.136719 C 38.011719 56.128906 38.03125 56.121094 38.054688 56.117188 C 38.089844 56.101562 38.125 56.085938 38.160156 56.066406 C 38.160156 56.066406 38.160156 56.066406 38.160156 56.0625 C 38.207031 56.039062 38.253906 56.011719 38.296875 55.976562 C 38.304688 55.972656 38.316406 55.964844 38.324219 55.957031 C 38.363281 55.925781 38.402344 55.894531 38.441406 55.855469 C 38.445312 55.851562 38.453125 55.84375 38.457031 55.835938 C 38.488281 55.804688 38.515625 55.773438 38.542969 55.738281 C 38.550781 55.726562 38.558594 55.71875 38.566406 55.707031 C 38.59375 55.664062 38.621094 55.625 38.648438 55.578125 C 39.023438 54.875 39.476562 54.058594 39.988281 53.160156 C 40.003906 53.128906 40.019531 53.097656 40.039062 53.066406 C 40.070312 53.007812 40.105469 52.949219 40.136719 52.890625 C 40.183594 52.808594 40.226562 52.734375 40.273438 52.652344 C 40.28125 52.640625 40.289062 52.628906 40.292969 52.617188 C 40.363281 52.488281 40.4375 52.363281 40.511719 52.234375 C 40.550781 52.164062 40.59375 52.09375 40.632812 52.019531 C 40.671875 51.953125 40.710938 51.882812 40.753906 51.8125 C 41.246094 50.945312 41.785156 50.019531 42.347656 49.046875 C 42.40625 48.941406 42.464844 48.839844 42.527344 48.734375 Z M 26.082031 7.140625 C 29.027344 4.203125 33.097656 2.382812 37.597656 2.382812 C 42.09375 2.382812 46.164062 4.203125 49.109375 7.140625 C 52.054688 10.082031 53.878906 14.144531 53.878906 18.632812 C 53.878906 23.757812 47.296875 35.667969 41.984375 44.921875 C 41.972656 44.9375 41.960938 44.953125 41.949219 44.96875 L 40.300781 47.839844 C 39.792969 48.71875 39.308594 49.558594 38.855469 50.347656 C 38.402344 51.136719 37.980469 51.875 37.597656 52.558594 C 36.824219 51.183594 35.894531 49.578125 34.882812 47.828125 C 34.871094 47.808594 34.859375 47.789062 34.847656 47.769531 L 33.269531 45.023438 C 33.242188 44.972656 33.214844 44.925781 33.183594 44.878906 C 27.871094 35.636719 21.3125 23.773438 21.3125 18.632812 C 21.3125 14.144531 23.136719 10.082031 26.082031 7.140625 Z M 17.394531 46.753906 L 23.769531 46.753906 L 22.058594 57.726562 L 10.730469 57.726562 Z M 5.882812 65.710938 L 20.816406 65.710938 L 20.277344 69.1875 L 3.773438 69.1875 Z M 28.34375 69.1875 L 28.882812 65.714844 L 69.460938 65.964844 L 71.417969 69.1875 Z M 28.34375 69.1875 " fill-opacity="1" fill-rule="nonzero"/></g><g clip-path="url(#3efaa4609f)"><g transform="matrix(1, 0, 0, 1, 52, 35)"><g clip-path="url(#25a1da8a8f)"><g clip-path="url(#10e267b462)"><path fill="#ffffff" d="M 0.460938 0.105469 L 110.996094 0.105469 L 110.996094 28.542969 L 0.460938 28.542969 Z M 0.460938 0.105469 " fill-opacity="1" fill-rule="nonzero"/></g></g></g></g><g fill="#000000" fill-opacity="1"><g transform="translate(48.865599, 60.466191)"><g><path d="M 7.484375 -26.15625 L 16.03125 -4.8125 L 24.59375 -26.15625 L 29.0625 -26.15625 L 29.0625 0 L 25.609375 0 L 25.609375 -10.1875 L 25.9375 -21.171875 L 17.34375 0 L 14.703125 0 L 6.140625 -21.125 L 6.484375 -10.1875 L 6.484375 0 L 3.03125 0 L 3.03125 -26.15625 Z M 7.484375 -26.15625 "/></g></g></g><g fill="#000000" fill-opacity="1"><g transform="translate(80.970346, 60.466191)"><g><path d="M 14.515625 0 C 14.316406 -0.382812 14.160156 -1.066406 14.046875 -2.046875 C 12.503906 -0.441406 10.660156 0.359375 8.515625 0.359375 C 6.597656 0.359375 5.023438 -0.179688 3.796875 -1.265625 C 2.566406 -2.347656 1.953125 -3.722656 1.953125 -5.390625 C 1.953125 -7.410156 2.722656 -8.976562 4.265625 -10.09375 C 5.804688 -11.21875 7.96875 -11.78125 10.75 -11.78125 L 13.984375 -11.78125 L 13.984375 -13.3125 C 13.984375 -14.46875 13.632812 -15.390625 12.9375 -16.078125 C 12.25 -16.765625 11.226562 -17.109375 9.875 -17.109375 C 8.6875 -17.109375 7.691406 -16.804688 6.890625 -16.203125 C 6.085938 -15.609375 5.6875 -14.890625 5.6875 -14.046875 L 2.359375 -14.046875 C 2.359375 -15.015625 2.703125 -15.953125 3.390625 -16.859375 C 4.078125 -17.765625 5.007812 -18.476562 6.1875 -19 C 7.363281 -19.53125 8.660156 -19.796875 10.078125 -19.796875 C 12.316406 -19.796875 14.066406 -19.234375 15.328125 -18.109375 C 16.597656 -16.992188 17.257812 -15.453125 17.3125 -13.484375 L 17.3125 -4.546875 C 17.3125 -2.765625 17.539062 -1.34375 18 -0.28125 L 18 0 Z M 9 -2.53125 C 10.039062 -2.53125 11.023438 -2.800781 11.953125 -3.34375 C 12.890625 -3.882812 13.566406 -4.582031 13.984375 -5.4375 L 13.984375 -9.421875 L 11.390625 -9.421875 C 7.316406 -9.421875 5.28125 -8.234375 5.28125 -5.859375 C 5.28125 -4.816406 5.625 -4 6.3125 -3.40625 C 7.007812 -2.820312 7.90625 -2.53125 9 -2.53125 Z M 9 -2.53125 "/></g></g></g><g fill="#000000" fill-opacity="1"><g transform="translate(100.972968, 60.466191)"><g><path d="M 18.921875 -9.5 C 18.921875 -6.539062 18.242188 -4.15625 16.890625 -2.34375 C 15.546875 -0.539062 13.71875 0.359375 11.40625 0.359375 C 9.039062 0.359375 7.1875 -0.390625 5.84375 -1.890625 L 5.84375 7.46875 L 2.515625 7.46875 L 2.515625 -19.4375 L 5.546875 -19.4375 L 5.71875 -17.28125 C 7.0625 -18.957031 8.9375 -19.796875 11.34375 -19.796875 C 13.6875 -19.796875 15.535156 -18.914062 16.890625 -17.15625 C 18.242188 -15.394531 18.921875 -12.945312 18.921875 -9.8125 Z M 15.609375 -9.875 C 15.609375 -12.070312 15.140625 -13.800781 14.203125 -15.0625 C 13.273438 -16.332031 11.992188 -16.96875 10.359375 -16.96875 C 8.347656 -16.96875 6.84375 -16.078125 5.84375 -14.296875 L 5.84375 -5.015625 C 6.832031 -3.242188 8.351562 -2.359375 10.40625 -2.359375 C 11.988281 -2.359375 13.25 -2.988281 14.1875 -4.25 C 15.132812 -5.507812 15.609375 -7.382812 15.609375 -9.875 Z M 15.609375 -9.875 "/></g></g></g><g fill="#000000" fill-opacity="1"><g transform="translate(121.604045, 60.466191)"><g><path d="M 6.125 0 L 2.796875 0 L 2.796875 -27.59375 L 6.125 -27.59375 Z M 6.125 0 "/></g></g></g><g fill="#000000" fill-opacity="1"><g transform="translate(130.528021, 60.466191)"><g><path d="M 14.515625 0 C 14.316406 -0.382812 14.160156 -1.066406 14.046875 -2.046875 C 12.503906 -0.441406 10.660156 0.359375 8.515625 0.359375 C 6.597656 0.359375 5.023438 -0.179688 3.796875 -1.265625 C 2.566406 -2.347656 1.953125 -3.722656 1.953125 -5.390625 C 1.953125 -7.410156 2.722656 -8.976562 4.265625 -10.09375 C 5.804688 -11.21875 7.96875 -11.78125 10.75 -11.78125 L 13.984375 -11.78125 L 13.984375 -13.3125 C 13.984375 -14.46875 13.632812 -15.390625 12.9375 -16.078125 C 12.25 -16.765625 11.226562 -17.109375 9.875 -17.109375 C 8.6875 -17.109375 7.691406 -16.804688 6.890625 -16.203125 C 6.085938 -15.609375 5.6875 -14.890625 5.6875 -14.046875 L 2.359375 -14.046875 C 2.359375 -15.015625 2.703125 -15.953125 3.390625 -16.859375 C 4.078125 -17.765625 5.007812 -18.476562 6.1875 -19 C 7.363281 -19.53125 8.660156 -19.796875 10.078125 -19.796875 C 12.316406 -19.796875 14.066406 -19.234375 15.328125 -18.109375 C 16.597656 -16.992188 17.257812 -15.453125 17.3125 -13.484375 L 17.3125 -4.546875 C 17.3125 -2.765625 17.539062 -1.34375 18 -0.28125 L 18 0 Z M 9 -2.53125 C 10.039062 -2.53125 11.023438 -2.800781 11.953125 -3.34375 C 12.890625 -3.882812 13.566406 -4.582031 13.984375 -5.4375 L 13.984375 -9.421875 L 11.390625 -9.421875 C 7.316406 -9.421875 5.28125 -8.234375 5.28125 -5.859375 C 5.28125 -4.816406 5.625 -4 6.3125 -3.40625 C 7.007812 -2.820312 7.90625 -2.53125 9 -2.53125 Z M 9 -2.53125 "/></g></g></g><g fill="#000000" fill-opacity="1"><g transform="translate(150.530643, 60.466191)"><g><path d="M 11.90625 -16.453125 C 11.40625 -16.535156 10.859375 -16.578125 10.265625 -16.578125 C 8.085938 -16.578125 6.613281 -15.648438 5.84375 -13.796875 L 5.84375 0 L 2.515625 0 L 2.515625 -19.4375 L 5.75 -19.4375 L 5.796875 -17.1875 C 6.890625 -18.925781 8.4375 -19.796875 10.4375 -19.796875 C 11.082031 -19.796875 11.570312 -19.710938 11.90625 -19.546875 Z M 11.90625 -16.453125 "/></g></g></g></svg>